<svg width="40" height="32" viewBox="0 0 40 32" fill="none" xmlns="http://www.w3.org/2000/svg">
<path fill-rule="evenodd" clip-rule="evenodd" d="M3.74938 2.50195L0.0580083 5.0039V0L3.74938 2.50195ZM0 7.33329H3.83691V31.49H0V7.33329ZM6.71441 7.33329H11.51L15.2305 21.7123V7.33329H18.7765V31.49H14.8523L10.2604 13.8614V31.49H6.85918L6.71441 7.33329ZM27.4963 7.33329H21.6831V31.49H27.4963C31.4202 31.49 33.3095 29.3907 33.3095 25.5084V13.315C33.3095 9.43268 31.3039 7.33329 27.4963 7.33329ZM29.4435 25.6809C29.4435 27.4064 28.7171 28.0391 27.4963 28.0391H25.5491V10.7843H27.4963C28.7171 10.7843 29.4435 11.417 29.4435 13.1425V25.6809ZM35.7513 7.33329H39.5875V31.49H35.7513V7.33329Z" fill="#FF4E4E"/>
</svg>
